<svg viewBox="0 0 45 40" fill="none" xmlns="http://www.w3.org/2000/svg"><path d="M9.71543 1V0c-.55228 0-1 .447715-1 1h1zM35.2846 1h1c0-.552285-.4477-1-1-1v1zm0 4.0668c-.5523 0-1 .44772-1 1 0 .55229.4477 1 1 1v-2zm8.2024 3.8103l-.995-.10002.995.10002zm-8.3426 10.133c-.5468.0774-.9274.5835-.85 1.1303.0774.5468.5835.9274 1.1303.85l-.2803-1.9803zM9.71543 7.0668c.55227 0 .99997-.44771.99997-1 0-.55228-.4477-1-.99997-1v2zM1.51301 8.8771l.99498-.10002-.99498.10002zm8.06228 12.1133c.54681.0774 1.05291-.3032 1.13031-.85.0774-.5468-.3032-1.0529-.85002-1.1303l-.28029 1.9803zM14.8293 38c-.5523 0-1 .4477-1 1s.4477 1 1 1v-2zm15.3415 2c.5523 0 1-.4477 1-1s-.4477-1-1-1v2zM9.71543 2H35.2846V0H9.71543v2zM34.2846 1v16.0176h2V1h-2zM23.325 27.8669h-1.65v2h1.65v-2zM10.7154 17.0176V1H8.71543v16.0176h1.99997zM21.675 27.8669c-6.0616 0-10.9596-4.8661-10.9596-10.8493H8.71543c0 7.1052 5.81097 12.8493 12.95957 12.8493v-2zm12.6096-10.8493c0 5.9832-4.898 10.8493-10.9596 10.8493v2c7.1487 0 12.9596-5.7441 12.9596-12.8493h-2zm1-9.9508h5.4658v-2h-5.4658v2zm7.2074 1.71028c-.1854 1.84492-.6557 4.24942-1.7824 6.27192-1.1082 1.9891-2.8235 3.5731-5.5652 3.9611l.2803 1.9803c3.5008-.4955 5.6953-2.5686 7.032-4.968 1.3181-2.3659 1.8278-5.0811 2.0253-7.04528l-1.99-.20004zM40.7504 7.0668c1.1001 0 1.8309.82235 1.7416 1.71028l1.99.20004c.2265-2.25363-1.6452-3.91032-3.7316-3.91032v2zm-31.03497-2H4.24958v2h5.46585v-2zM.518021 8.97712c.197447 1.96418.707199 4.67938 2.025269 7.04528 1.33676 2.3994 3.53117 4.4725 7.032 4.968l.28029-1.9803c-2.74168-.388-4.45702-1.972-5.56513-3.9611-1.12679-2.0225-1.597-4.427-1.78246-6.27192l-1.989969.20004zM4.24958 5.0668c-2.08635 0-3.958104 1.65669-3.731559 3.91032l1.989969-.20004c-.08926-.88793.64148-1.71028 1.74159-1.71028v-2zM21.5 28.8665v10.1334h2V28.8665h-2zM14.8293 40h15.3415v-2H14.8293v2z" fill="#FFE500"/></svg>